<svg width="24" height="28" viewBox="0 0 24 28" fill="none" xmlns="http://www.w3.org/2000/svg">
<path d="M21.3333 3.33268H20V0.666016H17.3333V3.33268H6.66667V0.666016H4V3.33268H2.66667C1.18667 3.33268 0.0133333 4.53268 0.0133333 5.99935L0 24.666C0 26.1327 1.18667 27.3327 2.66667 27.3327H21.3333C22.8 27.3327 24 26.1327 24 24.666V5.99935C24 4.53268 22.8 3.33268 21.3333 3.33268ZM21.3333 24.666H2.66667V11.3327H21.3333V24.666ZM21.3333 8.66602H2.66667V5.99935H21.3333V8.66602ZM8 16.666H5.33333V13.9993H8V16.666ZM13.3333 16.666H10.6667V13.9993H13.3333V16.666ZM18.6667 16.666H16V13.9993H18.6667V16.666ZM8 21.9993H5.33333V19.3327H8V21.9993ZM13.3333 21.9993H10.6667V19.3327H13.3333V21.9993ZM18.6667 21.9993H16V19.3327H18.6667V21.9993Z" fill="#00A790"/>
</svg>
