<svg width="38" height="31" viewBox="0 0 38 31" fill="none" xmlns="http://www.w3.org/2000/svg">
<path d="M32.3337 8.83333V5.5C32.3337 2.75 30.0837 0.5 27.3337 0.5H10.667C7.91699 0.5 5.66699 2.75 5.66699 5.5V8.83333C2.91699 8.83333 0.666992 11.0833 0.666992 13.8333V22.1667C0.666992 24.9167 2.91699 27.1667 5.66699 27.1667V28.8333C5.66699 29.75 6.41699 30.5 7.33366 30.5C8.25033 30.5 9.00033 29.75 9.00033 28.8333V27.1667H29.0003V28.8333C29.0003 29.75 29.7503 30.5 30.667 30.5C31.5837 30.5 32.3337 29.75 32.3337 28.8333V27.1667C35.0837 27.1667 37.3337 24.9167 37.3337 22.1667V13.8333C37.3337 11.0833 35.0837 8.83333 32.3337 8.83333ZM9.00033 5.5C9.00033 4.58333 9.75033 3.83333 10.667 3.83333H27.3337C28.2503 3.83333 29.0003 4.58333 29.0003 5.5V10.1333C27.9837 11.05 27.3337 12.3667 27.3337 13.8333V17.1667H10.667V13.8333C10.667 12.3667 10.017 11.05 9.00033 10.1333V5.5ZM34.0003 22.1667C34.0003 23.0833 33.2503 23.8333 32.3337 23.8333H5.66699C4.75033 23.8333 4.00033 23.0833 4.00033 22.1667V13.8333C4.00033 12.9167 4.75033 12.1667 5.66699 12.1667C6.58366 12.1667 7.33366 12.9167 7.33366 13.8333V20.5H30.667V13.8333C30.667 12.9167 31.417 12.1667 32.3337 12.1667C33.2503 12.1667 34.0003 12.9167 34.0003 13.8333V22.1667Z" fill="#00A790"/>
</svg>
