<svg width="17" height="17" viewBox="0 0 17 17" fill="none" xmlns="http://www.w3.org/2000/svg">
<path fill-rule="evenodd" clip-rule="evenodd" d="M4.82552 0.167919C5.67943 0.128609 5.95169 0.119873 8.12686 0.119873C10.302 0.119873 10.5743 0.129337 11.4275 0.167919C12.2807 0.206501 12.863 0.342632 13.3726 0.539911C13.9062 0.741559 14.3903 1.05677 14.7907 1.46443C15.1984 1.86409 15.5128 2.34746 15.7138 2.88179C15.9118 3.39137 16.0472 3.97374 16.0865 4.82547C16.1258 5.68083 16.1345 5.95309 16.1345 8.12754C16.1345 10.3027 16.1251 10.575 16.0865 11.4289C16.0479 12.2806 15.9118 12.863 15.7138 13.3726C15.5128 13.907 15.1978 14.3911 14.7907 14.7914C14.3903 15.199 13.9062 15.5135 13.3726 15.7144C12.863 15.9124 12.2807 16.0478 11.4289 16.0872C10.5743 16.1265 10.302 16.1352 8.12686 16.1352C5.95169 16.1352 5.67943 16.1257 4.82552 16.0872C3.9738 16.0486 3.39142 15.9124 2.88185 15.7144C2.34746 15.5135 1.86329 15.1985 1.46303 14.7914C1.05565 14.3915 0.740389 13.9075 0.53924 13.3733C0.34196 12.8637 0.206558 12.2813 0.167248 11.4296C0.127937 10.5742 0.119202 10.302 0.119202 8.12754C0.119202 5.95236 0.128665 5.6801 0.167248 4.82692C0.20583 3.97374 0.34196 3.39137 0.53924 2.88179C0.740686 2.34752 1.05618 1.86359 1.46376 1.4637C1.86345 1.05641 2.34713 0.741154 2.88112 0.539911C3.3907 0.342632 3.97307 0.207229 4.8248 0.167919H4.82552ZM11.3627 1.6093C10.5182 1.57072 10.2649 1.56271 8.12686 1.56271C5.98882 1.56271 5.73549 1.57072 4.89104 1.6093C4.10993 1.64497 3.68625 1.77528 3.4038 1.8852C3.03035 2.03079 2.76319 2.20332 2.48292 2.48359C2.21724 2.74206 2.01278 3.05671 1.88453 3.40447C1.7746 3.68692 1.6443 4.1106 1.60863 4.89171C1.57004 5.73616 1.56204 5.98949 1.56204 8.12754C1.56204 10.2656 1.57004 10.5189 1.60863 11.3634C1.6443 12.1445 1.7746 12.5681 1.88453 12.8506C2.01265 13.1978 2.21721 13.5131 2.48292 13.7715C2.74135 14.0372 3.05656 14.2418 3.4038 14.3699C3.68625 14.4798 4.10993 14.6101 4.89104 14.6458C5.73549 14.6844 5.98809 14.6924 8.12686 14.6924C10.2656 14.6924 10.5182 14.6844 11.3627 14.6458C12.1438 14.6101 12.5675 14.4798 12.8499 14.3699C13.2234 14.2243 13.4905 14.0518 13.7708 13.7715C14.0365 13.5131 14.2411 13.1978 14.3692 12.8506C14.4791 12.5681 14.6094 12.1445 14.6451 11.3634C14.6837 10.5189 14.6917 10.2656 14.6917 8.12754C14.6917 5.98949 14.6837 5.73616 14.6451 4.89171C14.6094 4.1106 14.4791 3.68692 14.3692 3.40447C14.2236 3.03102 14.0511 2.76386 13.7708 2.48359C13.5123 2.21793 13.1977 2.01347 12.8499 1.8852C12.5675 1.77528 12.1438 1.64497 11.3627 1.6093ZM7.10407 10.5961C7.67528 10.8339 8.31132 10.8659 8.90356 10.6869C9.4958 10.5078 10.0075 10.1287 10.3513 9.61423C10.695 9.09979 10.8495 8.48196 10.7884 7.86627C10.7272 7.25058 10.4542 6.67522 10.0159 6.23846C9.73658 5.95926 9.39878 5.74548 9.02688 5.61251C8.65497 5.47953 8.25821 5.43067 7.86516 5.46944C7.4721 5.50821 7.09253 5.63364 6.75377 5.83671C6.41501 6.03978 6.12549 6.31543 5.90605 6.64383C5.68661 6.97222 5.54271 7.34518 5.48471 7.73586C5.42671 8.12654 5.45606 8.52522 5.57063 8.9032C5.6852 9.28118 5.88216 9.62905 6.14731 9.92178C6.41247 10.2145 6.73923 10.4448 7.10407 10.5961ZM5.21644 5.21711C5.59864 4.83491 6.05238 4.53173 6.55176 4.32489C7.05113 4.11804 7.58635 4.01158 8.12686 4.01158C8.66738 4.01158 9.2026 4.11804 9.70197 4.32489C10.2013 4.53173 10.6551 4.83491 11.0373 5.21711C11.4195 5.59932 11.7227 6.05306 11.9295 6.55243C12.1364 7.0518 12.2428 7.58702 12.2428 8.12754C12.2428 8.66805 12.1364 9.20327 11.9295 9.70264C11.7227 10.202 11.4195 10.6558 11.0373 11.038C10.2654 11.8098 9.21848 12.2435 8.12686 12.2435C7.03524 12.2435 5.98833 11.8098 5.21644 11.038C4.44455 10.2661 4.01091 9.21916 4.01091 8.12754C4.01091 7.03592 4.44455 5.98901 5.21644 5.21711ZM13.1557 4.62455C13.2504 4.5352 13.3262 4.42776 13.3787 4.30859C13.4311 4.18942 13.4591 4.06093 13.461 3.93074C13.4629 3.80055 13.4387 3.67131 13.3897 3.55065C13.3408 3.43 13.2681 3.3204 13.176 3.22833C13.084 3.13626 12.9744 3.0636 12.8537 3.01466C12.7331 2.96571 12.6038 2.94146 12.4736 2.94336C12.3434 2.94526 12.2149 2.97326 12.0958 3.02571C11.9766 3.07815 11.8692 3.15397 11.7798 3.24869C11.6061 3.43288 11.5109 3.67755 11.5146 3.93074C11.5183 4.18394 11.6205 4.42572 11.7996 4.60478C11.9786 4.78383 12.2204 4.88605 12.4736 4.88975C12.7268 4.89344 12.9715 4.79831 13.1557 4.62455Z" fill="#3D7877"/>
</svg>
