<svg width="28" height="35" viewBox="0 0 28 35" fill="none" xmlns="http://www.w3.org/2000/svg">
<path d="M24.0003 11.6667H22.3337V8.33333C22.3337 3.73333 18.6003 0 14.0003 0C9.40033 0 5.66699 3.73333 5.66699 8.33333V11.6667H4.00033C2.16699 11.6667 0.666992 13.1667 0.666992 15V31.6667C0.666992 33.5 2.16699 35 4.00033 35H24.0003C25.8337 35 27.3337 33.5 27.3337 31.6667V15C27.3337 13.1667 25.8337 11.6667 24.0003 11.6667ZM9.00033 8.33333C9.00033 5.56667 11.2337 3.33333 14.0003 3.33333C16.767 3.33333 19.0003 5.56667 19.0003 8.33333V11.6667H9.00033V8.33333ZM24.0003 31.6667H4.00033V15H24.0003V31.6667ZM14.0003 26.6667C15.8337 26.6667 17.3337 25.1667 17.3337 23.3333C17.3337 21.5 15.8337 20 14.0003 20C12.167 20 10.667 21.5 10.667 23.3333C10.667 25.1667 12.167 26.6667 14.0003 26.6667Z" fill="#00A790"/>
</svg>
