<svg width="15" height="14" viewBox="0 0 15 14" fill="none" xmlns="http://www.w3.org/2000/svg">
<path d="M5.13695 13.3996H5.07423C3.81076 13.3886 2.56556 13.0967 1.42879 12.5451C1.21968 12.4469 1.04751 12.2843 0.937477 12.0812C0.827444 11.878 0.785327 11.645 0.817292 11.4162C0.852056 11.1858 0.95871 10.9723 1.12202 10.8062C1.28534 10.6401 1.49697 10.5298 1.72669 10.4911C2.43117 10.3971 3.1089 10.1596 3.71797 9.79337C2.66052 8.96661 1.84645 7.86918 1.36201 6.61737C0.877568 5.36556 0.740817 4.006 0.966246 2.68279C0.996811 2.4732 1.08695 2.2768 1.22593 2.11697C1.36492 1.95714 1.5469 1.8406 1.75021 1.78123C1.94802 1.7191 2.15971 1.71645 2.35902 1.77359C2.55832 1.83073 2.73645 1.94516 2.87129 2.10265C3.32912 2.703 3.90447 3.20378 4.56223 3.57444C5.21999 3.94511 5.94636 4.17788 6.69704 4.25856C6.7329 3.33493 7.12982 2.46227 7.80244 1.82826C8.13829 1.50666 8.53479 1.25511 8.96883 1.08828C9.40288 0.921454 9.86578 0.842675 10.3306 0.856538C10.7954 0.870402 11.2528 0.976631 11.6761 1.16903C12.0994 1.36144 12.4802 1.63617 12.7963 1.97722C12.8787 2.05002 12.981 2.09642 13.09 2.1104C13.199 2.12438 13.3097 2.10529 13.4078 2.05561C13.5947 1.96746 13.8029 1.93427 14.0079 1.95993C14.213 1.98559 14.4066 2.06903 14.566 2.20053C14.7254 2.33202 14.8442 2.50615 14.9084 2.70259C14.9726 2.89903 14.9797 3.10968 14.9287 3.30996C14.7479 4.05482 14.4053 4.75073 13.9252 5.34828C13.8194 7.57847 12.8362 9.67638 11.1899 11.1846C9.54364 12.6928 7.36786 13.489 5.13695 13.3996ZM5.13695 11.8317H5.19967C6.11116 11.863 7.01981 11.7131 7.87294 11.3907C8.72607 11.0682 9.5067 10.5796 10.1696 9.95321C10.8325 9.32679 11.3644 8.57502 11.7345 7.74148C12.1047 6.90794 12.3057 6.00922 12.3259 5.09741C12.3389 4.84752 12.4419 4.61078 12.616 4.43103C12.8072 4.18898 12.9703 3.92597 13.1021 3.64707C12.8196 3.6476 12.5403 3.58853 12.2822 3.4737C12.0242 3.35887 11.7933 3.19087 11.6047 2.9807C11.4233 2.80082 11.2078 2.65894 10.9709 2.56336C10.734 2.46779 10.4803 2.42043 10.2249 2.42408C9.96689 2.41741 9.71011 2.46176 9.4693 2.55459C9.22848 2.64742 9.00837 2.7869 8.8216 2.96502C8.56961 3.20413 8.38485 3.50522 8.28579 3.83817C8.18673 4.17112 8.17685 4.52425 8.25714 4.86222L8.46097 5.75594L7.54373 5.81866C6.60383 5.8953 5.65849 5.76673 4.7732 5.44185C3.88791 5.11697 3.08381 4.60355 2.41658 3.93714C2.38797 4.96915 2.64613 5.98888 3.16237 6.88295C3.67861 7.77702 4.43269 8.51041 5.34078 9.00156L6.08555 9.4249L5.59165 10.1305C5.05753 10.831 4.32569 11.3553 3.49062 11.6357C4.02631 11.77 4.57686 11.8358 5.12911 11.8317H5.13695Z" fill="#3D7877"/>
</svg>
